<?xml version="1.0" encoding="utf-8"?>
<!-- Generator: Adobe Illustrator 27.5.0, SVG Export Plug-In . SVG Version: 6.00 Build 0)  -->
<svg version="1.1" xmlns="http://www.w3.org/2000/svg" xmlns:xlink="http://www.w3.org/1999/xlink" x="0px" y="0px"
	 viewBox="0 0 500 500" style="enable-background:new 0 0 500 500;" xml:space="preserve">
<g id="BACKGROUND">
	<g>
		<rect style="fill:#E9EBFF;" width="500" height="500"/>
	</g>
</g>
<g id="OBJECTS">
	<g>
		<g>
			<path style="fill:#D0D0F7;" d="M160.435,96.125c0.838,11.021,5.207,22.618,0.656,32.68c-3.663,8.099-12.092,12.708-19.895,16.914
				c-27.889,15.033-55.059,32.328-76.57,55.65c-21.511,23.323-37.073,53.342-38.237,85.115
				c-0.691,18.876,4.959,39.699,20.727,49.988c11.077,7.229,25.296,7.975,38.271,5.484c12.974-2.491,25.176-7.904,37.644-12.286
				c23.45-8.242,50.147-12.672,72.583-1.954c15.648,7.475,27.16,21.324,40.561,32.357c32.594,26.833,78.379,36.612,119.02,25.421
				c5.048-1.39,10.271-3.248,13.684-7.234c6.922-8.081,3.432-20.274,3.219-30.933c-0.301-15.047,7.377-30.024,19.746-38.517
				c15.709-10.787,30.052-15.299,46.674-24.605c43.724-24.48,35.135-65.585,24.787-81.236
				c-12.33-18.647-34.796-26.868-56.901-29.699c-22.105-2.831-46.334-4.495-62.656-19.736c-19.6-18.303-20.378-49.198-34.427-72.078
				c-26.754-43.572-92.167-62.688-132.501-26.327C165.522,65.315,159.279,80.919,160.435,96.125z"/>
			<g>
				<defs>
					<path id="SVGID_1_" d="M160.435,96.125c0.838,11.021,5.207,22.618,0.656,32.68c-3.663,8.099-12.092,12.708-19.895,16.914
						c-27.889,15.033-55.059,32.328-76.57,55.65c-21.511,23.323-37.073,53.342-38.237,85.115
						c-0.691,18.876,4.959,39.699,20.727,49.988c11.077,7.229,25.296,7.975,38.271,5.484c12.974-2.491,25.176-7.904,37.644-12.286
						c23.45-8.242,50.147-12.672,72.583-1.954c15.648,7.475,27.16,21.324,40.561,32.357c32.594,26.833,78.379,36.612,119.02,25.421
						c5.048-1.39,10.271-3.248,13.684-7.234c6.922-8.081,3.432-20.274,3.219-30.933c-0.301-15.047,7.377-30.024,19.746-38.517
						c15.709-10.787,30.052-15.299,46.674-24.605c43.724-24.48,35.135-65.585,24.787-81.236
						c-12.33-18.647-34.796-26.868-56.901-29.699c-22.105-2.831-46.334-4.495-62.656-19.736
						c-19.6-18.303-20.378-49.198-34.427-72.078c-26.754-43.572-92.167-62.688-132.501-26.327
						C165.522,65.315,159.279,80.919,160.435,96.125z"/>
				</defs>
				<clipPath id="SVGID_00000075863939540044709420000011386905314105761698_">
					<use xlink:href="#SVGID_1_"  style="overflow:visible;"/>
				</clipPath>
				<g style="clip-path:url(#SVGID_00000075863939540044709420000011386905314105761698_);">
					<g>
						<g>
							<g>
								<g>
									<path style="fill:#E9EBFF;" d="M106.62,111.72c0,53.584,0,107.168,0,160.752c0,1.307,2.031,1.309,2.031,0
										c0-3.983,0-7.965,0-11.948c0-1.307-2.031-1.309-2.031,0c0,3.983,0,7.965,0,11.948c0,1.307,2.031,1.309,2.031,0
										c0-53.584,0-107.168,0-160.752C108.651,110.413,106.62,110.411,106.62,111.72L106.62,111.72z"/>
								</g>
							</g>
							<g>
								<g>
									<path style="fill:#E9EBFF;" d="M107.635,273.487c77.111,0,154.222,0,231.333,0c1.307,0,1.309-2.031,0-2.031
										c-77.111,0-154.222,0-231.333,0C106.328,271.456,106.326,273.487,107.635,273.487L107.635,273.487z"/>
								</g>
							</g>
							<g>
								<g>
									<path style="fill:#E9EBFF;" d="M339.984,272.472c0-53.584,0-107.168,0-160.752c0-1.307-2.031-1.309-2.031,0
										c0,53.584,0,107.168,0,160.752C337.953,273.779,339.984,273.781,339.984,272.472L339.984,272.472z"/>
								</g>
							</g>
							<g>
								<g>
									<path style="fill:#E9EBFF;" d="M107.635,112.735c77.111,0,154.222,0,231.333,0c1.307,0,1.309-2.031,0-2.031
										c-77.111,0-154.222,0-231.333,0C106.328,110.704,106.326,112.735,107.635,112.735L107.635,112.735z"/>
								</g>
							</g>
						</g>
						<g>
							<g>
								<g>
									<g>
										<g>
											<path style="fill:#E9EBFF;" d="M114.645,118.512c0,49.056,0,98.112,0,147.168c0,1.307,2.031,1.309,2.031,0
												c0-3.646,0-7.292,0-10.938c0-1.307-2.031-1.309-2.031,0c0,3.646,0,7.292,0,10.938c0,1.307,2.031,1.309,2.031,0
												c0-49.056,0-98.112,0-147.168C116.676,117.205,114.645,117.203,114.645,118.512L114.645,118.512z"/>
										</g>
									</g>
									<g>
										<g>
											<path style="fill:#E9EBFF;" d="M115.66,266.695c34.472,0,68.944,0,103.415,0c1.307,0,1.309-2.031,0-2.031
												c-34.472,0-68.944,0-103.415,0C114.353,264.664,114.351,266.695,115.66,266.695L115.66,266.695z"/>
										</g>
									</g>
									<g>
										<g>
											<path style="fill:#E9EBFF;" d="M220.091,265.68c0-49.056,0-98.112,0-147.168c0-1.307-2.031-1.309-2.031,0
												c0,49.056,0,98.112,0,147.168C218.06,266.987,220.091,266.989,220.091,265.68L220.091,265.68z"/>
										</g>
									</g>
									<g>
										<g>
											<path style="fill:#E9EBFF;" d="M115.66,119.527c34.472,0,68.944,0,103.415,0c1.307,0,1.309-2.031,0-2.031
												c-34.472,0-68.944,0-103.415,0C114.353,117.496,114.351,119.527,115.66,119.527L115.66,119.527z"/>
										</g>
									</g>
								</g>
								<g>
									<g>
										<path style="fill:#E9EBFF;" d="M129.858,218.668c9.281,9.281,18.562,18.562,27.843,27.843
											c0.925,0.925,2.362-0.51,1.436-1.436c-9.281-9.281-18.562-18.562-27.843-27.843
											C130.369,216.306,128.932,217.742,129.858,218.668L129.858,218.668z"/>
									</g>
								</g>
								<g>
									<g>
										<path style="fill:#E9EBFF;" d="M130.852,192.814c14.253,14.253,28.506,28.506,42.758,42.758
											c0.925,0.925,2.362-0.51,1.436-1.436c-14.253-14.253-28.506-28.506-42.758-42.758
											C131.363,190.452,129.926,191.888,130.852,192.814L130.852,192.814z"/>
									</g>
								</g>
								<g>
									<g>
										<path style="fill:#E9EBFF;" d="M142.785,170.938c13.921,13.921,27.843,27.843,41.764,41.764
											c0.925,0.925,2.362-0.51,1.436-1.436c-13.921-13.921-27.843-27.843-41.764-41.764
											C143.295,168.576,141.859,170.012,142.785,170.938L142.785,170.938z"/>
									</g>
								</g>
								<g>
									<g>
										<path style="fill:#E9EBFF;" d="M167.644,163.977c6.961,6.961,13.921,13.921,20.882,20.882
											c0.925,0.925,2.362-0.51,1.436-1.436c-6.961-6.961-13.921-13.921-20.882-20.882
											C168.155,161.615,166.718,163.051,167.644,163.977L167.644,163.977z"/>
									</g>
								</g>
								<g>
									<g>
										<path style="fill:#E9EBFF;" d="M181.566,153.039c4.972,4.972,9.944,9.944,14.916,14.916
											c0.925,0.925,2.362-0.51,1.436-1.436c-4.972-4.972-9.944-9.944-14.916-14.916
											C182.076,150.677,180.64,152.113,181.566,153.039L181.566,153.039z"/>
									</g>
								</g>
							</g>
							<g>
								<g>
									<g>
										<g>
											<path style="fill:#E9EBFF;" d="M226.512,118.512c0,49.056,0,98.112,0,147.168c0,1.307,2.031,1.309,2.031,0
												c0-3.646,0-7.292,0-10.938c0-1.307-2.031-1.309-2.031,0c0,3.646,0,7.292,0,10.938c0,1.307,2.031,1.309,2.031,0
												c0-49.056,0-98.112,0-147.168C228.543,117.205,226.512,117.203,226.512,118.512L226.512,118.512z"/>
										</g>
									</g>
									<g>
										<g>
											<path style="fill:#E9EBFF;" d="M227.528,266.695c34.472,0,68.944,0,103.415,0c1.307,0,1.309-2.031,0-2.031
												c-34.472,0-68.944,0-103.415,0C226.221,264.664,226.219,266.695,227.528,266.695L227.528,266.695z"/>
										</g>
									</g>
									<g>
										<g>
											<path style="fill:#E9EBFF;" d="M331.959,265.68c0-49.056,0-98.112,0-147.168c0-1.307-2.031-1.309-2.031,0
												c0,49.056,0,98.112,0,147.168C329.928,266.987,331.959,266.989,331.959,265.68L331.959,265.68z"/>
										</g>
									</g>
									<g>
										<g>
											<path style="fill:#E9EBFF;" d="M227.528,119.527c34.472,0,68.944,0,103.415,0c1.307,0,1.309-2.031,0-2.031
												c-34.472,0-68.944,0-103.415,0C226.221,117.496,226.219,119.527,227.528,119.527L227.528,119.527z"/>
										</g>
									</g>
								</g>
								<g>
									<g>
										<path style="fill:#E9EBFF;" d="M241.725,218.668c9.281,9.281,18.562,18.562,27.843,27.843
											c0.925,0.925,2.362-0.51,1.436-1.436c-9.281-9.281-18.562-18.562-27.843-27.843
											C242.236,216.306,240.8,217.742,241.725,218.668L241.725,218.668z"/>
									</g>
								</g>
								<g>
									<g>
										<path style="fill:#E9EBFF;" d="M242.72,192.814c14.253,14.253,28.506,28.506,42.758,42.758
											c0.925,0.925,2.362-0.51,1.436-1.436c-14.253-14.253-28.506-28.506-42.758-42.758
											C243.231,190.452,241.794,191.888,242.72,192.814L242.72,192.814z"/>
									</g>
								</g>
								<g>
									<g>
										<path style="fill:#E9EBFF;" d="M254.652,170.938c13.921,13.921,27.843,27.843,41.764,41.764
											c0.925,0.925,2.362-0.51,1.436-1.436c-13.921-13.921-27.843-27.843-41.764-41.764
											C255.163,168.576,253.727,170.012,254.652,170.938L254.652,170.938z"/>
									</g>
								</g>
								<g>
									<g>
										<path style="fill:#E9EBFF;" d="M279.512,163.977c6.961,6.961,13.921,13.921,20.882,20.882
											c0.925,0.925,2.362-0.51,1.436-1.436c-6.961-6.961-13.921-13.921-20.882-20.882
											C280.023,161.615,278.586,163.051,279.512,163.977L279.512,163.977z"/>
									</g>
								</g>
								<g>
									<g>
										<path style="fill:#E9EBFF;" d="M293.433,153.039c4.972,4.972,9.944,9.944,14.916,14.916
											c0.925,0.925,2.362-0.51,1.436-1.436c-4.972-4.972-9.944-9.944-14.916-14.916
											C293.944,150.677,292.507,152.113,293.433,153.039L293.433,153.039z"/>
									</g>
								</g>
							</g>
						</g>
					</g>
					<g>
						<g>
							<g>
								<g>
									<g>
										<path style="fill:#E9EBFF;" d="M394.304,188.786c0,27.895,0,55.79,0,83.686c0,1.307,2.031,1.309,2.031,0
											c0-2.073,0-4.147,0-6.22c0-1.307-2.031-1.309-2.031,0c0,2.073,0,4.147,0,6.22c0,1.307,2.031,1.309,2.031,0
											c0-27.895,0-55.79,0-83.686C396.335,187.48,394.304,187.477,394.304,188.786L394.304,188.786z"/>
									</g>
								</g>
								<g>
									<g>
										<path style="fill:#E9EBFF;" d="M395.32,273.487c22.086,0,44.172,0,66.257,0c1.307,0,1.309-2.031,0-2.031
											c-22.086,0-44.172,0-66.257,0C394.013,271.456,394.011,273.487,395.32,273.487L395.32,273.487z"/>
									</g>
								</g>
								<g>
									<g>
										<path style="fill:#E9EBFF;" d="M462.593,272.472c0-27.895,0-55.79,0-83.686c0-1.307-2.031-1.309-2.031,0
											c0,27.895,0,55.79,0,83.686C460.562,273.779,462.593,273.781,462.593,272.472L462.593,272.472z"/>
									</g>
								</g>
								<g>
									<g>
										<path style="fill:#E9EBFF;" d="M395.32,189.802c22.086,0,44.172,0,66.257,0c1.307,0,1.309-2.031,0-2.031
											c-22.086,0-44.172,0-66.257,0C394.013,187.771,394.011,189.802,395.32,189.802L395.32,189.802z"/>
									</g>
								</g>
							</g>
						</g>
						<g>
							<g>
								<g>
									<g>
										<g>
											<path style="fill:#E9EBFF;" d="M405.954,199.374c0,11.879,0,23.758,0,35.637c0,1.307,2.031,1.309,2.031,0
												c0-0.883,0-1.766,0-2.649c0-1.307-2.031-1.309-2.031,0c0,0.883,0,1.766,0,2.649c0,1.307,2.031,1.309,2.031,0
												c0-11.879,0-23.758,0-35.637C407.985,198.067,405.954,198.065,405.954,199.374L405.954,199.374z"/>
										</g>
									</g>
									<g>
										<g>
											<path style="fill:#E9EBFF;" d="M406.97,236.026c14.09,0,28.18,0,42.271,0c1.307,0,1.309-2.031,0-2.031
												c-14.09,0-28.18,0-42.271,0C405.663,233.995,405.661,236.026,406.97,236.026L406.97,236.026z"/>
										</g>
									</g>
									<g>
										<g>
											<path style="fill:#E9EBFF;" d="M450.256,235.01c0-11.879,0-23.758,0-35.637c0-1.307-2.031-1.309-2.031,0
												c0,11.879,0,23.758,0,35.637C448.225,236.317,450.256,236.319,450.256,235.01L450.256,235.01z"/>
										</g>
									</g>
									<g>
										<g>
											<path style="fill:#E9EBFF;" d="M406.97,200.389c14.09,0,28.18,0,42.271,0c1.307,0,1.309-2.031,0-2.031
												c-14.09,0-28.18,0-42.271,0C405.663,198.358,405.661,200.389,406.97,200.389L406.97,200.389z"/>
										</g>
									</g>
								</g>
							</g>
							<g>
								<rect x="406.97" y="241.873" style="fill:#E9EBFF;" width="42.27" height="2.184"/>
							</g>
							<g>
								<rect x="406.97" y="249.407" style="fill:#E9EBFF;" width="42.27" height="2.184"/>
							</g>
							<g>
								<rect x="406.97" y="256.94" style="fill:#E9EBFF;" width="42.27" height="2.184"/>
							</g>
						</g>
					</g>
					<g>
						<g>
							<path style="fill:#E9EBFF;" d="M231.69,97.784c-18.987,0-34.434-15.447-34.434-34.434s15.447-34.434,34.434-34.434
								c18.987,0,34.434,15.447,34.434,34.434S250.677,97.784,231.69,97.784z M231.69,31.099c-17.783,0-32.25,14.467-32.25,32.25
								s14.467,32.25,32.25,32.25c17.783,0,32.251-14.467,32.251-32.25S249.473,31.099,231.69,31.099z"/>
						</g>
						<g>
							<path style="fill:#E9EBFF;" d="M231.69,90.058c-14.727,0-26.708-11.982-26.708-26.708s11.982-26.708,26.708-26.708
								c14.727,0,26.708,11.982,26.708,26.708S246.417,90.058,231.69,90.058z M231.69,38.825c-13.523,0-24.525,11.001-24.525,24.525
								s11.001,24.525,24.525,24.525c13.523,0,24.524-11.001,24.524-24.525S245.213,38.825,231.69,38.825z"/>
						</g>
						<g>
							<path style="fill:#E9EBFF;" d="M231.69,64.441h-11.349c-0.603,0-1.092-0.489-1.092-1.092c0-0.603,0.489-1.092,1.092-1.092
								h10.257V45.424c0-0.603,0.489-1.092,1.092-1.092c0.603,0,1.092,0.489,1.092,1.092v17.925
								C232.782,63.952,232.293,64.441,231.69,64.441z"/>
						</g>
					</g>
					<g>
						<g>
							<g>
								<g>
									<g>
										<path style="fill:#E9EBFF;" d="M25.016,188.786c0,27.895,0,55.79,0,83.686c0,1.307,2.031,1.309,2.031,0
											c0-2.073,0-4.147,0-6.22c0-1.307-2.031-1.309-2.031,0c0,2.073,0,4.147,0,6.22c0,1.307,2.031,1.309,2.031,0
											c0-27.895,0-55.79,0-83.686C27.047,187.48,25.016,187.477,25.016,188.786L25.016,188.786z"/>
									</g>
								</g>
								<g>
									<g>
										<path style="fill:#E9EBFF;" d="M26.032,273.487c22.086,0,44.172,0,66.257,0c1.307,0,1.309-2.031,0-2.031
											c-22.086,0-44.172,0-66.257,0C24.725,271.456,24.723,273.487,26.032,273.487L26.032,273.487z"/>
									</g>
								</g>
								<g>
									<g>
										<path style="fill:#E9EBFF;" d="M93.305,272.472c0-27.895,0-55.79,0-83.686c0-1.307-2.031-1.309-2.031,0
											c0,27.895,0,55.79,0,83.686C91.274,273.779,93.305,273.781,93.305,272.472L93.305,272.472z"/>
									</g>
								</g>
								<g>
									<g>
										<path style="fill:#E9EBFF;" d="M26.032,189.802c22.086,0,44.172,0,66.257,0c1.307,0,1.309-2.031,0-2.031
											c-22.086,0-44.172,0-66.257,0C24.725,187.771,24.723,189.802,26.032,189.802L26.032,189.802z"/>
									</g>
								</g>
							</g>
						</g>
						<g>
							<g>
								<g>
									<g>
										<g>
											<path style="fill:#E9EBFF;" d="M36.666,199.374c0,11.879,0,23.758,0,35.637c0,1.307,2.031,1.309,2.031,0
												c0-0.883,0-1.766,0-2.649c0-1.307-2.031-1.309-2.031,0c0,0.883,0,1.766,0,2.649c0,1.307,2.031,1.309,2.031,0
												c0-11.879,0-23.758,0-35.637C38.697,198.067,36.666,198.065,36.666,199.374L36.666,199.374z"/>
										</g>
									</g>
									<g>
										<g>
											<path style="fill:#E9EBFF;" d="M37.682,236.026c14.09,0,28.18,0,42.271,0c1.307,0,1.309-2.031,0-2.031
												c-14.09,0-28.18,0-42.271,0C36.375,233.995,36.373,236.026,37.682,236.026L37.682,236.026z"/>
										</g>
									</g>
									<g>
										<g>
											<path style="fill:#E9EBFF;" d="M80.968,235.01c0-11.879,0-23.758,0-35.637c0-1.307-2.031-1.309-2.031,0
												c0,11.879,0,23.758,0,35.637C78.937,236.317,80.968,236.319,80.968,235.01L80.968,235.01z"/>
										</g>
									</g>
									<g>
										<g>
											<path style="fill:#E9EBFF;" d="M37.682,200.389c14.09,0,28.18,0,42.271,0c1.307,0,1.309-2.031,0-2.031
												c-14.09,0-28.18,0-42.271,0C36.375,198.358,36.373,200.389,37.682,200.389L37.682,200.389z"/>
										</g>
									</g>
								</g>
							</g>
							<g>
								<rect x="37.681" y="241.873" style="fill:#E9EBFF;" width="42.271" height="2.184"/>
							</g>
							<g>
								<rect x="37.681" y="249.407" style="fill:#E9EBFF;" width="42.271" height="2.184"/>
							</g>
							<g>
								<rect x="37.681" y="256.94" style="fill:#E9EBFF;" width="42.271" height="2.184"/>
							</g>
						</g>
					</g>
				</g>
			</g>
		</g>
		<g>
			<g>
				<g>
					<path style="fill:#FABA34;" d="M246.414,284.279c-4.105,5.566-41.13,26.693-53.542,33.757
						c-5.12,2.914,2.21,35.613,7.867,33.744c19.448-6.423,65.33-32.233,67.264-34.074c15.098-14.371,27.211-45.598,27.223-74.166
						c0.015-33.017-19.556-48.398-23.121-45.925C248.502,213.985,252.264,276.347,246.414,284.279z"/>
					<g>
						<g>
							<path style="fill:#DD9922;" d="M251.942,286.273c3.341-0.302,5.889,0.804,8.755,2.355c0.357,0.193,0.748-0.277,0.442-0.573
								c-2.398-2.327-6.094-2.875-9.283-2.421C251.496,285.686,251.577,286.306,251.942,286.273L251.942,286.273z"/>
						</g>
						<g>
							<path style="fill:#DD9922;" d="M253.849,282.697c4.59,0.809,8.908,2.266,13.4,3.436c0.618,0.161,1.081-0.797,0.452-1.073
								c-4.237-1.865-9.003-2.743-13.557-3.434C253.45,281.521,253.139,282.572,253.849,282.697L253.849,282.697z"/>
						</g>
					</g>
				</g>
				<g>
					<path style="fill:#A05012;" d="M450.529,457.193c-18.129-1.916-117.561-1.621-147.625-0.15
						c-5.715-16.444-6.89-44.843-0.781-79.875c8.535-7.496,100.932-19.781,108.543-20.777c14.549-1.904,19.548-12.873,25.797,1.416
						c5.73,13.104,9.75,36.444,12.223,50.528C451.512,424.436,452.167,440.926,450.529,457.193z"/>
					<g>
						<path style="fill:#FABA34;" d="M268.661,202.789c-4.297,8.527,4.953,23.168,6.951,32.506
							c2.785,13.02-0.011,32.086,6.993,43.409c3.562,5.758,19.449,13.87,22.673,19.824c8.117,14.99,6.102,23.499,4.781,40.493
							c-1.32,16.995-3.408,21.712-7.936,38.146c19.601,7.769,135.86-15.112,134.34-19.361
							c-7.044-19.691-17.669-41.444-27.705-59.791c-3.23-5.905-6.775-11.681-9.13-17.986c-2.696-7.217-1.353-43.967-1.65-65.676
							c-0.061-4.436-9.444-38.216-13.745-39.245C353.14,167.669,282.604,175.122,268.661,202.789z"/>
						<g>
							<path style="fill:#DD9922;" d="M288.317,281.466c-8.441-9.398-7.091-20.048-5.197-31.526
								c0.513-3.109-0.177-5.658-1.372-8.532c-1.973-4.745-3.957-9.685-6.495-14.153c-0.392-0.69-1.566-0.231-1.305,0.55
								c1.577,4.714,3.967,9.127,5.912,13.695c2.625,6.163,0.51,10.995-0.042,17.248c-0.76,8.606,1.25,17.442,7.69,23.526
								C288.047,282.781,288.808,282.011,288.317,281.466L288.317,281.466z"/>
						</g>
						<path style="fill:#DD9922;" d="M287.913,233.146c2.647-1.014,8.432-0.973,11.079-1.988
							c-0.573,6.174-1.146,12.348-1.719,18.522c11.798,5.887,24.368,10.225,37.287,12.865c1.464,0.299,3.009,0.573,4.427,0.101
							c1.52-0.506,2.636-1.78,3.675-3c8.098-9.516,16.196-19.032,24.295-28.548c-3.042-1.997-6.083-3.994-9.125-5.991
							c3.625-2.674,7.969-4.364,12.449-4.842c1.543-15.597-0.373-32.32-8.838-45.51c-6.16-9.598-17.815-13.677-22.557-13.244
							c-14.515,1.326-33.273,2.583-44.679,12.993C280.075,187.405,282.899,218.451,287.913,233.146z"/>
						<path style="fill:#E9EBFF;" d="M336.796,259.271c7.719-16.156,13.327-33.318,16.639-50.914
							c2.172-11.542,4.138-21.791-0.674-32.505c-0.768-1.709-23.776-2.822-36.856,0.76c-3.517,0.963-23.285,3.558-23.341,13.528
							C292.376,223.788,318.465,246.116,336.796,259.271z"/>
						<path style="fill:#F48794;" d="M347.275,176.917c0.143,0.827-19.563,20.737-30.953,21.549
							c-8.302,0.592-21.384-8.711-19.924-9.798c3.742-2.786,3.03-8.272,1.948-12.661c-1.379-5.591-2.759-11.183-4.138-16.774
							c6.306,1.279,12.74-1.302,18.583-3.984c9.269-4.254,18.059-9.302,27.146-13.841c-4.07,7.054-0.76,26.056,1.711,29.339
							C343.363,173.028,346.757,173.921,347.275,176.917z"/>
						<path style="fill:#CACEEA;" d="M352.991,178.386c-0.366,7.452-12.301,32.212-15.396,32.586
							c-2.309,0.279-20.546-11.103-21.384-10.936c-0.594,0.119-9.314,11.093-14.204,15.528c-4.499-4.867-9.516-20.561-9.538-27.089
							c-0.018-5.407,1.891-7.546,5.875-12.469c1.203,5.401,5.951,13.621,10.353,17.167c2.12,1.708,4.384,3.481,7.128,3.903
							c5.289,0.814,9.782-3.546,13.279-7.472c8.852-9.936,10.641-23.914,10.641-23.914
							C345.176,168.192,353.226,173.606,352.991,178.386z"/>
						<g>
							<path style="fill:#CACEEA;" d="M316.302,201.258c0.888,5.411,2.004,10.787,3.124,16.154
								c1.114,5.337,2.083,10.808,3.622,16.04c0.195,0.662,1.134,0.379,1.018-0.281c-0.95-5.383-2.399-10.713-3.544-16.061
								c-1.147-5.358-2.172-10.742-3.316-16.1C317.077,200.413,316.206,200.675,316.302,201.258L316.302,201.258z"/>
						</g>
					</g>
				</g>
				<g>
					<path style="fill:#C94D35;" d="M318.22,58.949c5.609-1.988,11.823-2.59,17.541-0.94c5.718,1.649,14.816,10.709,14.796,20.246
						c-0.021,9.762-4.891,16.418-8.265,17.22c-4.412,1.049-8.749-1.575-12.75-3.711c-6.177-3.298-19.075-4.291-21.636-11.653
						C304.971,71.673,310.258,61.771,318.22,58.949z"/>
					<path style="fill:#FF98A1;" d="M321.98,173.386c-4.836,4.019-11.578,8.038-18.124,6.312
						c-8.629-2.276-17.482-11.786-23.722-20.574c-6.032-8.495-5.517-26.004-10.643-48.794c-1.518-6.747,11.187-16.841,16.705-21.009
						c3.532-2.667,7.793-4.225,12.117-5.168c11.685-2.548,24.623-0.546,34.083,6.772c15.498,11.988,12.217,28.126,9.065,44.667
						C338.298,152.186,335.174,162.421,321.98,173.386z"/>
					<g>
						<path style="fill:#DD6F81;" d="M298.585,129.443c1.382,4.639,1.278,9.512-1.668,13.556c-0.874,1.199-2.298,2.417-2.058,4.074
							c0.388,2.687,5.707,4.173,7.771,4.549c0.935,0.17,1.829-0.972,1.004-1.724c-1.191-1.084-2.775-1.497-4.255-2.09
							c-3.436-1.377-0.637-2.938,0.51-5.098c2.348-4.424,2.209-9.441,0.306-13.946C299.804,127.84,298.305,128.502,298.585,129.443
							L298.585,129.443z"/>
					</g>
					<g>
						<path style="fill:#DC6242;" d="M321.911,119.318c-1.886-2.512-5.035-3.63-8.123-3.263c-2.202,0.262-5.672,1.508-6.164,4
							c-0.143,0.723,0.597,1.414,1.294,0.994c1.721-1.037,2.713-2.452,4.839-2.9c2.792-0.587,5.045,0.551,7.34,1.983
							C321.575,120.431,322.278,119.807,321.911,119.318L321.911,119.318z"/>
					</g>
					<g>
						<path style="fill:#DC6242;" d="M293.215,121.41c-2.074-3.137-5.635-4.333-9.28-3.744c-1.368,0.221-6.309,1.407-5.62,3.677
							c0.104,0.341,0.376,0.505,0.711,0.542c1.251,0.139,3.198-1.521,4.389-1.866c3.358-0.974,6.136-0.1,8.616,2.305
							C292.628,122.901,293.701,122.145,293.215,121.41L293.215,121.41z"/>
					</g>
					<path style="fill:#4D1D4F;" d="M313.833,133.336c0.223,2.179,1.352,3.848,2.52,3.728c1.169-0.12,1.935-1.983,1.712-4.161
						c-0.223-2.179-1.352-3.848-2.52-3.728C314.376,129.294,313.61,131.158,313.833,133.336z"/>
					<path style="fill:#4D1D4F;" d="M284.741,134.698c0.223,2.179,1.352,3.848,2.52,3.728c1.168-0.12,1.935-1.983,1.712-4.161
						c-0.223-2.179-1.352-3.848-2.52-3.728C285.284,130.657,284.518,132.52,284.741,134.698z"/>
					<g>
						<path style="fill:#F48794;" d="M325.475,141.021c-0.984-0.569-2.164-0.386-3.266-0.34c-1.218,0.05-2.452,0.134-3.648,0.374
							c-1.367,0.274-1.082,2.597,0.333,2.462c1.189-0.113,2.367-0.335,3.553-0.479c1.016-0.124,2.152-0.043,3.028-0.62
							C325.972,142.091,326.023,141.338,325.475,141.021L325.475,141.021z"/>
					</g>
					<g>
						<path style="fill:#F48794;" d="M284.8,142.565c-0.96,0.149-1.918,0.274-2.891,0.246c-0.914-0.026-1.717-0.305-2.431,0.409
							c-0.294,0.294-0.349,0.766-0.145,1.125c0.566,0.996,1.738,0.899,2.754,0.848c1.116-0.056,2.219-0.232,3.261-0.639
							C286.594,144.068,286.114,142.361,284.8,142.565L284.8,142.565z"/>
					</g>
					<path style="fill:#DC6242;" d="M306.777,94.523c4.357,0.054,11.584,2.493,15.353,4.678c7.638,4.428,8.784,9.761,13.651,27.451
						c1.546,5.62,4.896,9.556,7.28,9.944c3.095,0.503,5.519-2.339,6.808-5.197c6.209-13.766,2.201-39.354-9.965-48.3
						c-12.166-8.946-33.273-11.203-47.76-6.944c-5.051,1.485-29.383,10.808-22.415,36.349c0,0,2.826-7.14,10.404-12.483
						C287.438,94.871,297.932,94.413,306.777,94.523z"/>
					<path style="fill:#FF98A1;" d="M338.078,134.383c0.803-4.976,2.539-10.486,7.542-11.106c0.781-0.097,1.593-0.112,2.335,0.15
						c1.409,0.496,2.306,1.885,2.845,3.278c2.538,6.561,1.067,12.739-2.967,18.502c-1.328,1.898-4.77,5.422-8.673,3.531
						C336.239,147.322,338.078,134.383,338.078,134.383z"/>
					<g>
						<path style="fill:#DD6F81;" d="M342.298,131.652c0.542-0.807,1.35-2.768,2.271-3.098c2.784-0.997,2.688,6.646,2.406,8.162
							c-0.646,3.474-2.534,5.817-5.856,6.71c-0.502,0.135-0.589,0.841-0.144,1.102c1.619,0.95,3.741-0.838,4.754-1.975
							c2.122-2.379,2.922-5.692,2.734-8.816c-0.108-1.801-0.537-7.006-3.271-6.88c-1.868,0.087-3.184,2.808-3.895,4.211
							C340.96,131.734,341.882,132.271,342.298,131.652L342.298,131.652z"/>
					</g>
					<path style="fill:#E9EBFF;" d="M295.06,158.586c0,0,8.213,1.644,16.133-1.848c0,0,1.245,8.888-6.681,9.487
						C304.512,166.225,298.051,166.594,295.06,158.586z"/>
					<g>
						<path style="fill:#C94D35;" d="M275.465,98.989c-0.116-5.968,1.744-10.03,5.145-14.781c0.251-0.35-0.257-0.876-0.608-0.608
							c-4.455,3.41-6.449,10.123-5.518,15.522C274.58,99.682,275.476,99.544,275.465,98.989L275.465,98.989z"/>
					</g>
					<g>
						<path style="fill:#C94D35;" d="M283.208,94.643c0.421-2.427,0.907-4.778,1.964-7.025c0.962-2.046,2.427-3.662,3.642-5.535
							c0.254-0.392-0.276-0.979-0.673-0.673c-3.696,2.843-5.827,8.557-5.883,13.104C282.251,95.044,283.113,95.192,283.208,94.643
							L283.208,94.643z"/>
					</g>
					<g>
						<path style="fill:#C94D35;" d="M294.526,91.525c1.518-5.706,4.426-9.782,7.75-14.51c0.312-0.444-0.336-0.831-0.698-0.538
							c-4.287,3.469-6.853,9.534-7.894,14.816C293.577,91.838,294.38,92.074,294.526,91.525L294.526,91.525z"/>
					</g>
					<g>
						<path style="fill:#C94D35;" d="M304.296,90.872c0.851-2.376,1.732-4.682,3.022-6.862c1.164-1.968,2.73-3.626,3.942-5.548
							c0.189-0.3-0.205-0.739-0.51-0.51c-3.729,2.788-6.276,8.248-7.265,12.697C303.367,91.182,304.115,91.38,304.296,90.872
							L304.296,90.872z"/>
					</g>
					<g>
						<path style="fill:#C94D35;" d="M312.985,91.958c2.406-5.048,4.984-9.496,10.865-10.673c0.346-0.069,0.23-0.548-0.078-0.577
							c-6.075-0.556-9.422,6.286-11.39,10.897C312.21,92.009,312.789,92.37,312.985,91.958L312.985,91.958z"/>
					</g>
					<g>
						<path style="fill:#C94D35;" d="M322.582,94.99c2.899-4.974,6.958-7.444,12.024-9.791c0.484-0.224,0.121-0.9-0.342-0.812
							c-5.319,1.012-9.898,5.598-12.285,10.251C321.775,95.035,322.354,95.381,322.582,94.99L322.582,94.99z"/>
					</g>
					<g>
						<path style="fill:#C94D35;" d="M332.025,100.235c2.177-3.084,5.354-5.168,9.039-5.964c0.716-0.155,0.414-1.27-0.304-1.102
							c-3.949,0.924-7.25,3.244-9.462,6.641C331,100.27,331.717,100.671,332.025,100.235L332.025,100.235z"/>
					</g>
					<g>
						<path style="fill:#C94D35;" d="M335.739,108.913c2.671-2.971,5.807-4.5,9.222-6.393c0.464-0.257,0.139-0.931-0.348-0.826
							c-3.741,0.803-7.108,3.741-9.491,6.602C334.768,108.721,335.359,109.336,335.739,108.913L335.739,108.913z"/>
					</g>
					<g>
						<path style="fill:#C94D35;" d="M338.578,117.083c0.756-1.003,1.673-1.867,2.742-2.53c0.94-0.583,1.997-0.86,2.962-1.377
							c0.422-0.226,0.239-0.943-0.248-0.917c-2.527,0.137-4.921,2.374-6.291,4.335C337.38,117.113,338.211,117.57,338.578,117.083
							L338.578,117.083z"/>
					</g>
					<g>
						<path style="fill:#DD6F81;" d="M340.977,136.206c0.079-0.41,0.158-0.818,0.25-1.226c-0.231,0.131-0.462,0.262-0.694,0.394
							c1.105,0.447,2.011,1.523,1.846,2.769c-0.158,1.188-1.097,1.789-2.104,2.236c-0.569,0.253-0.29,1.237,0.32,1.183
							c4.039-0.359,4.186-6.557,0.238-7.275c-0.349-0.063-0.721,0.151-0.714,0.544c0.008,0.421,0.004,0.839,0,1.26
							C340.116,136.569,340.882,136.699,340.977,136.206L340.977,136.206z"/>
					</g>
				</g>
				<g>
					<g>
						<path style="fill:#4D1D4F;" d="M335.707,232.522l-59.497,10.049c-2.769,0.468-4.634,3.091-4.166,5.86l15.388,91.106
							c0.468,2.769,3.091,4.634,5.86,4.166l59.497-10.049c2.769-0.468,4.634-3.091,4.166-5.86l-15.388-91.106
							C341.099,233.92,338.476,232.054,335.707,232.522z"/>
						<path style="fill:#7B64D6;" d="M311.77,233.593c-0.003-0.023,0.004-0.046,0-0.069c-0.357-2.116-3.524-3.345-7.073-2.745
							c-3.549,0.599-6.136,2.8-5.779,4.916c0.004,0.023,0.018,0.042,0.023,0.065l-6.548,1.106l1.634,9.677l26.155-4.417
							l-1.634-9.677L311.77,233.593z"/>
					</g>
					<path style="fill:#FF98A1;" d="M359.148,274.982c-1.549-0.974-8.74-2.68-10.375-1.859c-4.063,2.04-25.066,4.844-24.622,8.045
						c0.324,2.336,16.414,0.258,17.472,2.175c0,2.062-18.89,2.577-18.89,5.068c0,5.183,18.89,0.859,20.274,4.184
						c-1.384,2.228-18.703-0.003-17.19,5.348c4.992,2.409,19.653,0.378,21.458,3.182c-4.621,0-16.882-0.607-15.187,3.866
						c0.586,1.547,21.993,2.026,23.65,1.432c3.391-1.215,7.836-4.5,12.172-5.555c5.105-1.243,10.146-0.247,14.397-1.612
						c4.158-4.432,2.564-8.13,1.581-12.82c-1.245-5.942-1.443-9.09-7.474-7.989C370.767,279.477,365.478,278.961,359.148,274.982z"
						/>
					<path style="fill:#FFC050;" d="M426.154,214.353c9.908,19.014,14.731,32.19,21.191,48.771
						c3.462,8.886,6.321,15.59,4.066,24.857c-4.842,19.898-56.344,21.798-80.746,14.613c-1.443-9.087-5.644-18.826-5.148-28.014
						c18.241,0.401,29.955-0.888,44.336-3.866c-5.316-11.444-14.257-22.992-23.56-36.203c-6.569-9.329-20.324-60.398-2.062-59.404
						C406.57,176.324,421.11,204.674,426.154,214.353z"/>
					<g>
						<path style="fill:#DD9922;" d="M375.717,204.579c2.634,16.938,10.13,32.312,21.022,45.474
							c0.696,0.841,1.961-0.389,1.212-1.212c-11.361-12.484-18.379-27.954-21.3-44.52
							C376.542,203.705,375.623,203.973,375.717,204.579L375.717,204.579z"/>
					</g>
					<g>
						<path style="fill:#DD9922;" d="M379.108,236.274c1.933,2.878,4.074,5.591,6.49,8.082c2.293,2.365,4.979,5.215,8.02,6.573
							c0.448,0.2,0.928-0.318,0.548-0.71c-2.243-2.318-5.112-4.028-7.452-6.288c-2.555-2.468-4.83-5.182-6.88-8.082
							C379.525,235.413,378.803,235.82,379.108,236.274L379.108,236.274z"/>
					</g>
					<g>
						<path style="fill:#DD9922;" d="M381.55,248.043c3.567,2.774,7.37,5.967,11.398,8.027c0.536,0.274,1.164-0.428,0.673-0.872
							c-3.361-3.041-7.684-5.474-11.552-7.828C381.665,247.124,381.159,247.739,381.55,248.043L381.55,248.043z"/>
					</g>
					<g>
						<path style="fill:#FABA34;" d="M412.131,271.741c3.375-0.468,6.611-1.064,10.031-0.81c3.007,0.223,5.813,1.312,8.779,1.566
							c0.638,0.055,0.762-0.822,0.304-1.124c-5.007-3.302-14.046-2.842-19.389-0.627
							C411.239,271.003,411.47,271.833,412.131,271.741L412.131,271.741z"/>
					</g>
					<g>
						<path style="fill:#FABA34;" d="M413.088,268.271c2.575-1.448,5.152-2.493,8.125-2.729c2.404-0.191,4.685,0.399,7.06,0.569
							c0.638,0.046,0.85-0.887,0.32-1.183c-4.807-2.68-11.958-0.85-16.105,2.315C411.896,267.695,412.4,268.658,413.088,268.271
							L413.088,268.271z"/>
					</g>
					<g>
						<path style="fill:#FABA34;" d="M371.851,277.826c-0.31,2.304-0.081,4.608,0.463,6.865c0.464,1.923,1.025,4.311,2.648,5.552
							c0.369,0.283,0.94-0.1,0.919-0.527c-0.086-1.806-1.191-3.384-1.683-5.123c-0.612-2.161-0.758-4.351-0.944-6.576
							C373.192,277.28,371.966,276.971,371.851,277.826L371.851,277.826z"/>
					</g>
				</g>
			</g>
			<g>
				<path style="fill:#6641CC;" d="M50.722,445.667L31.333,309.125c0,0,0-12.089,12.667-15.774s96.178-19.383,109.756-7.2
					c13.577,12.182,27.094,159.516,27.094,159.516H50.722z"/>
				<g>
					<g>
						<path style="fill:#47BDFB;" d="M180.806,293.594c25.436,11.101,19.181,80.625,26.044,88.196
							c5.455,6.017,20.037,13.411,29.721,17.51c25.174,10.657,18.203,36.327,1.967,35.321
							c-36.338,0.025-56.281-19.791-62.539-42.523c-5.007-18.187-18.777-73.211-14.825-79.559
							C164.311,307.5,175.266,291.176,180.806,293.594z"/>
						<path style="fill:#F48794;" d="M239.747,403.884c-5.826-1.368-20.539,1.772-22.791,11.151
							c-2.004,8.346,1.754,13.917,9.047,15.463c7.293,1.546,20.482-1.129,24.521-9.071
							C254.563,413.486,244.758,405.061,239.747,403.884z"/>
						<path style="fill:#FF98A1;" d="M215.168,424.293c0.142,0.965,3.502,7.438,4.351,10.022c0.337,1.027,6.406-2.039,2.749-8.671
							c-0.687-1.247,1.041-4.216,2.618-5.766c0.628,4.595-0.642,8.076,1.038,12.398c0.531,1.365,1.377,2.914,2.835,3.041
							c1.989,0.173,2.931-10.523,4.631-13.134c1.388,1.351-0.858,12.432,3.6,12.432c4.639,1.874,3.454-10.975,4.39-14.284
							c0.802,5.847,0.249,15.167,4.049,15.102c2.462-1.384,2.483-9.994,3.78-14.714c0,0-1.632,13.482,2.769,12.242
							c1.517-0.427,2.039-12.225,0.631-16.277c-1.408-4.052-3.245-7.14-7.201-8.801c-3.036-1.275-15.944,0.481-19.234,0.602
							C223.779,408.574,213.96,416.095,215.168,424.293z"/>
						<g>
							<path style="fill:#3FB4E8;" d="M195.914,391.993c1.763-3.789,4.449-5.768,8.605-6.248c1.056-0.122,1.105-1.625,0-1.682
								c-4.213-0.217-8.799,3.37-9.634,7.496C194.766,392.144,195.628,392.607,195.914,391.993L195.914,391.993z"/>
						</g>
						<g>
							<path style="fill:#3FB4E8;" d="M198.98,396.074c1.041-1.506,2.041-2.967,3.446-4.165c1.287-1.097,2.984-1.664,4.176-2.842
								c0.306-0.302,0.07-0.814-0.342-0.826c-1.855-0.056-3.619,1.383-4.926,2.575c-1.451,1.323-2.728,2.96-3.368,4.829
								C197.75,396.274,198.642,396.564,198.98,396.074L198.98,396.074z"/>
						</g>
						<g>
							<path style="fill:#3FB4E8;" d="M207.355,397.161c0.545-0.82,1.166-1.573,1.879-2.252c0.625-0.594,1.517-1.075,1.959-1.823
								c0.255-0.433-0.165-0.898-0.618-0.804c-0.936,0.193-1.725,1.144-2.324,1.833c-0.679,0.781-1.263,1.634-1.759,2.541
								C206.181,397.225,207.001,397.695,207.355,397.161L207.355,397.161z"/>
						</g>
						<g>
							<path style="fill:#3FB4E8;" d="M212.572,398.434c0.87-0.925,2.042-1.854,2.432-3.099c0.152-0.486-0.394-0.796-0.792-0.609
								c-1.124,0.527-1.865,1.784-2.627,2.721C211.029,398.129,211.944,399.102,212.572,398.434L212.572,398.434z"/>
						</g>
						<g>
							<path style="fill:#3FB4E8;" d="M217.888,400.385c0.32-0.495,0.773-0.861,1.322-1.076c0.322-0.126,0.712-0.197,0.932-0.482
								c0.201-0.26,0.258-0.64,0.065-0.923c-0.231-0.338-0.547-0.441-0.938-0.382c-1.15,0.175-2.153,1.101-2.683,2.101
								C216.132,400.485,217.361,401.2,217.888,400.385L217.888,400.385z"/>
						</g>
					</g>
					<g>
						<path style="fill:#3FB4E8;" d="M74.114,294.823c-2.991,2.243-9.271,17.324-9.133,21.255
							c0.375,10.711,1.505,21.395,3.379,31.947c5.552,31.27,19.681,63.226,11.282,93.854c36.045,0.099,72.095-2.052,107.872-6.437
							c0.12-27.627,3.79-27.801,4.341-55.423c0.855-42.862-3.067-80.574-11.049-86.425c-7.691-5.638-16.816-7.881-19.792-8.728
							c-11.359-3.236-13.78-0.907-25.518-2.508C113.689,279.383,91.962,281.439,74.114,294.823z"/>
						<g>
							<path style="fill:#47BDFB;" d="M137.835,310.687c0.241,20.022,2.317,40.102,3.256,60.107
								c0.983,20.947,1.663,41.907,1.943,62.876c0.017,1.296,2.024,1.3,2.015,0c-0.147-21.29-0.834-42.574-1.874-63.838
								c-0.964-19.707-1.441-39.748-4.078-59.315C138.999,309.791,137.826,309.978,137.835,310.687L137.835,310.687z"/>
						</g>
						<g>
							<path style="fill:#32A4CC;" d="M186.285,309.572c2.858,14.556,4.14,29.361,4.519,44.178
								c0.363,14.228-1.291,28.669-0.444,42.839c0.05,0.835,1.167,0.795,1.269,0c1.867-14.551,1.172-30.139,0.688-44.783
								c-0.473-14.304-2.034-28.487-5.343-42.425C186.867,308.931,186.197,309.124,186.285,309.572L186.285,309.572z"/>
						</g>
						<g>
							<rect x="156.323" y="338.446" style="fill:#E9EBFF;" width="24.483" height="38.722"/>
							<path style="fill:#7B64D6;" d="M172.087,334.387c0-0.022,0.007-0.042,0.007-0.064c0-2.028-1.644-3.673-3.673-3.673
								s-3.672,1.644-3.672,3.673c0,0.022,0.006,0.042,0.007,0.064h-3.742v9.278h14.947v-9.278H172.087z"/>
							<rect x="163.869" y="348.408" style="fill:#FF98A1;" width="8.528" height="10.358"/>
							<g>
								<rect x="160.659" y="362.865" style="fill:#7B64D6;" width="14.948" height="1.289"/>
								<rect x="160.659" y="366.73" style="fill:#7B64D6;" width="14.948" height="1.288"/>
								<rect x="160.659" y="370.596" style="fill:#7B64D6;" width="14.948" height="1.289"/>
							</g>
						</g>
						<path style="fill:#F48794;" d="M106.627,283.876c-0.058,0.837,21.576,18.634,32.989,18.28
							c8.319-0.258,20.385-10.846,18.822-11.779c-4.006-2.39-3.858-7.92-3.228-12.396c0.802-5.703,1.604-11.406,2.406-17.108
							c-6.143,1.915-12.806,0.003-18.893-2.069c-9.654-3.286-18.913-7.412-28.416-11.001c2.568,11.468,1.679,20.124,0.591,25.103
							C110.288,275.696,106.837,280.842,106.627,283.876z"/>
						<path style="fill:#47BDFB;" d="M101.09,285.92c1.124,7.376,15.521,30.79,18.638,30.847
							c2.326,0.043,17.795-12.74,18.436-12.176c3.087,2.715,12.118,9.201,17.434,13.115c3.98-5.3,7.37-21.424,6.726-27.921
							c-0.533-5.381-2.65-7.314-7.115-11.805c-0.646,5.495-4.531,14.157-8.549,18.133c-1.935,1.915-4.006,3.91-6.693,4.61
							c-5.179,1.349-10.093-2.531-13.972-6.079c-9.819-8.982-15.098-21.738-15.098-21.738
							C105.751,275.948,100.369,281.189,101.09,285.92z"/>
					</g>
					<g>
						<path style="fill:#FF98A1;" d="M190.357,405.791c3.905,1.229,6.988,4.162,10.194,6.709c3.914,3.109,5.503,5.475,8.091,9.752
							c2.588,4.277,1.272,12.068-2.577,10.163c-1.249-1.005,0.846-10.986-10.033-14.36c5.136,6.001,7.22,11.826,5.187,17.853
							c-3.143-0.583-4.223-5.345-5.721-7.385c-2.932-3.994-5.67-6.3-9.25-7.733c4.894,4.555,5.908,9.436,7.446,14.535
							c-3.608,2.991-6.352-4.727-8.505-6.802c-2.152-2.075-2.152-2.075-6.443-4.209c3.899,4.149,7.596,11.039,5.154,12.886
							c-4.846-2.588-7.94-10.051-13.338-11.474c-5.461,6.689-10.476,1.004-15.71,0.56c-1.237-6.341-2.474-12.682-3.711-19.023
							C151.142,408.995,187.451,404.876,190.357,405.791z"/>
						<path style="fill:#47BDFB;" d="M51.366,325.415c-3.172,13.759,5.892,89.03,15.621,97.609
							c21.043,18.556,93.031,10.848,94.449,9.981c1.805-1.105,7.051-19.774,3.729-28.985c-21.458-9.953-70.712-9.824-70.692-11.149
							c0.132-8.545,3.183-37.641,2.903-47.903c-0.249-9.097,0.673-21.357-2.387-29.927c-2.326-6.515-9.793-23.71-20.875-20.219
							C62.904,298.354,54.28,312.775,51.366,325.415z"/>
						<g>
							<path style="fill:#32A4CC;" d="M90.744,306.859c10.984,27.11,5.627,58.756,2.622,86.935c-0.055,0.516,0.462,0.87,0.907,0.907
								c21.237,1.783,42.466,3.183,63.384,7.496c1.186,0.245,1.693-1.578,0.502-1.821c-13.169-2.686-26.478-4.34-39.861-5.512
								c-6.475-0.567-13.977-0.117-20.283-1.662c-2.643-0.648-2.388-0.271-2.478-2.723c-0.057-1.569,0.378-3.48,0.546-5.041
								c0.337-3.134,0.669-6.269,0.977-9.407c2.25-22.88,4.252-48.011-5.288-69.606C91.519,305.848,90.504,306.266,90.744,306.859
								L90.744,306.859z"/>
						</g>
						<g>
							<path style="fill:#3FB4E8;" d="M89.258,394.377c-2.848,1.672-5.501,3.633-8.004,5.786c-2.38,2.047-5.318,4.335-6.835,7.123
								c-0.37,0.68,0.431,1.68,1.151,1.151c2.343-1.724,4.16-4.233,6.305-6.216c2.565-2.371,5.318-4.507,8.104-6.61
								C90.692,395.072,90.074,393.898,89.258,394.377L89.258,394.377z"/>
						</g>
						<g>
							<path style="fill:#3FB4E8;" d="M90.262,398.322c-3.163,5.572-7.607,13.352-7.611,19.905c0,0.611,0.846,0.846,1.153,0.312
								c1.536-2.666,2.086-5.854,3.104-8.751c1.293-3.682,2.855-7.258,4.505-10.794C91.77,398.23,90.693,397.563,90.262,398.322
								L90.262,398.322z"/>
						</g>
						<g>
							<path style="fill:#3FB4E8;" d="M159.247,407.567c0.193,3.562,0.056,7.124-0.707,10.62c-0.682,3.126-2.092,5.955-2.949,9.013
								c-0.186,0.665,0.676,0.931,1.044,0.44c4.017-5.359,4.569-13.669,3.722-20.073
								C160.267,406.882,159.207,406.834,159.247,407.567L159.247,407.567z"/>
						</g>
						<g>
							<path style="fill:#3FB4E8;" d="M96.981,419.245c-0.186,1.479-0.39,2.957-0.556,4.438c-0.146,1.299-0.494,2.711-0.125,3.975
								c0.146,0.501,0.92,0.666,1.175,0.154c0.583-1.173,0.504-2.518,0.594-3.812c0.11-1.583,0.177-3.17,0.261-4.755
								C98.376,418.359,97.086,418.409,96.981,419.245L96.981,419.245z"/>
						</g>
						<g>
							<path style="fill:#3FB4E8;" d="M104.064,422.333c-0.098,1.124-0.197,2.247-0.295,3.371c-0.084,0.961-0.351,1.923,0.152,2.788
								c0.256,0.44,0.812,0.366,1.082,0c0.583-0.788,0.409-1.846,0.433-2.788c0.029-1.124,0.058-2.247,0.087-3.371
								C105.548,421.382,104.144,421.411,104.064,422.333L104.064,422.333z"/>
						</g>
						<g>
							<path style="fill:#3FB4E8;" d="M111.023,423.03c0.036,1.269,0.069,2.538,0.093,3.807c0.005,0.278,0.154,0.623,0.426,0.743
								c0.332,0.147,0.544,0.206,0.869,0c0.359-0.227,0.451-0.576,0.396-0.972c-0.168-1.192-0.326-2.385-0.483-3.579
								C112.219,422.228,110.998,422.167,111.023,423.03L111.023,423.03z"/>
						</g>
						<g>
							<path style="fill:#3FB4E8;" d="M56.755,352.177c1.122-0.113,2.244-0.224,3.365-0.34c0.876-0.09,1.697-0.043,2.247-0.793
								c0.187-0.255,0.018-0.577-0.194-0.738c-0.711-0.541-1.65-0.173-2.465-0.022c-1.044,0.193-2.088,0.39-3.131,0.585
								C55.849,351.004,56.005,352.253,56.755,352.177L56.755,352.177z"/>
						</g>
						<g>
							<path style="fill:#3FB4E8;" d="M58.596,357.184c1.076,0.403,2.197,0.573,3.335,0.406c1.013-0.149,0.751-1.773-0.238-1.762
								c-0.916,0.01-1.763-0.004-2.649-0.266C57.988,355.25,57.599,356.81,58.596,357.184L58.596,357.184z"/>
						</g>
						<g>
							<path style="fill:#3FB4E8;" d="M59.17,364.737c0.637-0.051,1.255-0.013,1.881,0.117c0.659,0.137,1.132,0.296,1.706-0.148
								c0.19-0.147,0.227-0.449,0.175-0.664c-0.351-1.473-2.907-1.111-3.973-0.863C58.103,363.377,58.268,364.808,59.17,364.737
								L59.17,364.737z"/>
						</g>
						<g>
							<path style="fill:#3FB4E8;" d="M60.883,372.43c1.17,0.146,2.484,0.488,3.637,0.135c0.598-0.183,0.768-1.059,0.18-1.378
								c-1.123-0.609-2.57-0.535-3.817-0.63c-0.508-0.039-0.931,0.458-0.936,0.936C59.941,372.052,60.384,372.368,60.883,372.43
								L60.883,372.43z"/>
						</g>
					</g>
					<g>
						<path style="fill:#FF98A1;" d="M136.986,278.704c6.402,2.201,11.669,5.189,17.802,2.322
							c7.364-3.442,16.508-13.555,18.805-21.353c5.05-17.15,4.855-36.831-2.471-53.139c-2.834-6.308-6.752-12.443-12.667-16.026
							c-3.785-2.293-8.183-3.408-12.581-3.906c-11.884-1.344-24.55,1.968-33.215,10.212c-14.195,13.505-9.286,29.225-4.463,45.359
							C113.035,258.358,120.763,273.125,136.986,278.704z"/>
						<path style="fill:#2B0058;" d="M126.194,201.361c11.788,12.411,30.271,18.041,46.976,14.309
							c-1.123,6.76,0.36,13.919,4.077,19.677c4.85-18.753,5.165-28.328-1.286-41.432c-1.471-2.989-11.431-18.89-39.091-18.792
							c-6.487,0.023-13.303,1.127-18.203,5.378c-1.212,1.052-2.291,2.256-3.561,3.237c-1.588,1.228-3.432,2.074-5.151,3.111
							c-8.738,5.271-13.812,15.461-14.454,25.646c-0.469,7.451,6.424,43.145,19.799,35.999c-2.487-7.954-5.178-13.52-0.215-21.071
							c2.737-4.164,6.42-7.395,8.57-11.992C124.82,212.94,128.432,203.717,126.194,201.361z"/>
						<path style="fill:#FF98A1;" d="M113.978,239.52l-0.078-0.475c-1.307-4.868-6.057-8.592-11.096-8.699
							c-0.787-0.017-1.596,0.051-2.308,0.387c-1.351,0.637-2.102,2.11-2.495,3.551c-1.855,6.786,2.142,13.766,6.743,19.088
							c1.515,1.752,3.47,3.575,5.775,3.344c3.23-0.323,4.616-4.288,4.725-7.531C115.354,245.923,114.924,242.643,113.978,239.52z"/>
						<g>
							<path style="fill:#DD6F81;" d="M147.197,230.081c-0.961,3.935-0.696,7.835,1.052,11.539c0.94,1.992,2.373,3.274,3.604,5.018
								c3.839,5.438-0.391,6.773-3.443,10.032c-0.776,0.829,0.226,2.267,1.25,1.62c2.951-1.865,7.801-5.05,6.77-9.1
								c-0.603-2.371-2.878-3.947-4.323-5.767c-2.987-3.763-3.91-8.144-3.212-12.873
								C149.056,229.461,147.473,228.951,147.197,230.081L147.197,230.081z"/>
						</g>
						<g>
							<path style="fill:#DD6F81;" d="M140.465,263.79c5.801,2.309,12.223,1.828,17.719-1.117c1.242-0.665,0.148-2.491-1.097-1.877
								c-5.21,2.569-10.62,3.044-16.238,1.602C139.928,262.161,139.621,263.454,140.465,263.79L140.465,263.79z"/>
						</g>
						<g>
							<path style="fill:#DD6F81;" d="M148.605,269.907c0.678-0.523,1.376-0.986,2.245-1.094c0.807-0.1,1.534,0.147,2.327-0.064
								c0.319-0.085,0.479-0.474,0.308-0.757c-1.229-2.042-4.77-0.537-5.673,1.123C147.561,269.577,148.115,270.285,148.605,269.907
								L148.605,269.907z"/>
						</g>
						<g>
							<path style="fill:#DD6F81;" d="M111.398,240.466c-1.536-2.16-3.804-4.682-6.262-5.775c-3.158-1.404-3.848,1.655-3.99,4.248
								c-0.233,4.275,1.384,8.867,4.576,11.791c1.706,1.562,5.199,3.394,6.957,0.926c0.29-0.408-0.2-1.082-0.681-0.886
								c-5.866,2.397-9.505-6.372-9.558-10.97c-0.015-1.298-0.084-4.33,1.791-4.069c1.082,0.151,2.353,1.486,3.106,2.166
								c1.119,1.01,2.166,2.13,3.152,3.27C110.913,241.659,111.781,241.004,111.398,240.466L111.398,240.466z"/>
						</g>
						<g>
							<path style="fill:#2B0058;" d="M123.258,227.898c2.409-2.001,4.816-3.499,7.998-3.882c3.017-0.363,5.247,0.781,8.066,1.445
								c0.839,0.198,1.497-0.834,0.857-1.472c-4.681-4.662-14.605-1.882-17.856,3.187
								C121.936,227.781,122.767,228.305,123.258,227.898L123.258,227.898z"/>
						</g>
						<g>
							<path style="fill:#2B0058;" d="M155.043,225.121c3.75-3.996,8.509-0.847,13.065-1.842c0.65-0.142,0.682-1.025,0.176-1.348
								c-2.516-1.609-6.676-1.176-9.516-0.854c-2.303,0.261-3.709,1.114-4.909,3.131
								C153.427,224.934,154.45,225.753,155.043,225.121L155.043,225.121z"/>
						</g>
						<path style="fill:#2B0058;" d="M135.451,237.112c0,2.19-0.952,3.965-2.127,3.965c-1.175,0-2.127-1.775-2.127-3.965
							c0-2.19,0.952-3.965,2.127-3.965C134.498,233.146,135.451,234.922,135.451,237.112z"/>
						<path style="fill:#2B0058;" d="M164.53,235.501c0,2.19-0.952,3.965-2.127,3.965c-1.175,0-2.127-1.775-2.127-3.965
							s0.952-3.965,2.127-3.965C163.578,231.535,164.53,233.311,164.53,235.501z"/>
						<g>
							<path style="fill:#F48794;" d="M124.722,247.296c0.95,0.496,1.98,0.332,3.028,0.352c1.191,0.022,2.385,0.124,3.576,0.115
								c1.641-0.013,1.579-2.355,0-2.507c-1.183-0.114-2.392-0.052-3.576,0.026c-1.016,0.068-2.176,0.003-3.028,0.616
								C124.261,246.23,124.138,246.992,124.722,247.296L124.722,247.296z"/>
						</g>
						<g>
							<path style="fill:#F48794;" d="M164.828,245.344c1.073,0.297,2.179,0.389,3.291,0.331c0.968-0.05,2.276-0.032,2.731-1.047
								c0.154-0.344,0.194-0.854-0.145-1.125c-0.853-0.682-1.567-0.343-2.57-0.212c-1.005,0.131-2.024,0.078-3.033,0.026
								C163.925,243.258,163.722,245.038,164.828,245.344L164.828,245.344z"/>
						</g>
						<g>
							<path style="fill:#3E0787;" d="M130.493,195.045c7.731,9.416,21.472,15.234,33.604,12.313
								c0.479-0.115,0.388-0.908-0.118-0.873c-12.818,0.901-23.975-2.369-32.768-12.158
								C130.768,193.834,130.085,194.549,130.493,195.045L130.493,195.045z"/>
						</g>
						<g>
							<path style="fill:#3E0787;" d="M132.881,190.682c8.974,6.65,21.354,9.962,32.458,8.854c0.806-0.08,0.844-1.29,0-1.285
								c-11.868,0.074-21.67-2.522-32.05-8.268C132.823,189.725,132.471,190.379,132.881,190.682L132.881,190.682z"/>
						</g>
						<g>
							<path style="fill:#3E0787;" d="M135.405,186.172c10.615,0.152,19.416,4.033,29.523,6.337
								c0.533,0.122,0.935-0.668,0.391-0.928c-8.985-4.296-19.949-6.883-29.914-6.313
								C134.827,185.3,134.818,186.163,135.405,186.172L135.405,186.172z"/>
						</g>
						<g>
							<path style="fill:#3E0787;" d="M132.701,179.463c12.173,0.119,23.35,3.024,34.341,8.141c0.62,0.288,1.166-0.601,0.545-0.932
								c-10.698-5.687-22.82-8.247-34.885-8.098C132.13,178.581,132.128,179.457,132.701,179.463L132.701,179.463z"/>
						</g>
						<g>
							<path style="fill:#3E0787;" d="M112.206,220.895c6.643-4.261,5.53-11.219,6.707-17.954c0.121-0.693-0.913-1.002-1.071-0.295
								c-0.685,3.056-0.296,6.216-0.994,9.263c-0.782,3.416-2.771,5.873-5.17,8.3C111.336,220.554,111.78,221.168,112.206,220.895
								L112.206,220.895z"/>
						</g>
						<g>
							<path style="fill:#3E0787;" d="M108.45,219.291c0.779-6.883,1.9-12.257,5.588-18.165c0.244-0.391-0.3-0.783-0.623-0.481
								c-4.82,4.508-5.318,12.48-5.663,18.646C107.726,219.747,108.4,219.728,108.45,219.291L108.45,219.291z"/>
						</g>
						<g>
							<path style="fill:#3E0787;" d="M104.635,217.762c-1.381-7.297,0.602-13.117,4.161-19.401
								c0.169-0.298-0.244-0.643-0.486-0.375c-4.74,5.243-5.823,13.279-4.379,19.97C104.03,218.418,104.721,218.22,104.635,217.762
								L104.635,217.762z"/>
						</g>
						<g>
							<path style="fill:#3E0787;" d="M99.34,215.046c-1.493-8.135,2.368-19.289,9.542-23.499c0.345-0.203,0.119-0.767-0.275-0.652
								c-8.504,2.474-11.453,16.813-9.833,24.308C98.855,215.574,99.408,215.413,99.34,215.046L99.34,215.046z"/>
						</g>
						<g>
							<path style="fill:#DD6F81;" d="M109.776,242.552c-1.725-0.117-2.844,1.645-2.64,3.234c0.203,1.586,2.314,3.84,4.011,3.546
								c0.301-0.052,0.395-0.429,0.27-0.664c-0.504-0.948-1.839-1.218-2.499-2.113c-0.672-0.911-0.66-2.916,0.857-2.955
								C110.455,243.581,110.444,242.597,109.776,242.552L109.776,242.552z"/>
						</g>
					</g>
				</g>
			</g>
			<g>
				<g>
					<rect x="26.333" y="437.871" style="fill:#4D1D4F;" width="445.333" height="26.217"/>
					<rect x="26.333" y="453.776" style="fill:#321235;" width="445.333" height="10.312"/>
				</g>
				<g>
					<rect x="125.735" y="427.909" style="fill:#7B64D6;" width="153.326" height="9.962"/>
					<g>
						<g>
							<polygon style="fill:#6641CC;" points="412.776,409.033 229.609,409.033 240.096,290.65 423.263,290.65 							"/>
							<polygon style="fill:#7B64D6;" points="419.068,409.033 235.901,409.033 246.388,290.65 429.555,290.65 							"/>
							<polygon style="fill:#6E5ECC;" points="419.068,409.033 378.07,409.033 388.557,290.65 429.555,290.65 							"/>
						</g>
						<path style="fill:#6641CC;" d="M330.796,380.369h-6.292c-7.143,0-12.934,5.79-12.934,12.934v39.842h32.159v-39.842
							C343.729,386.159,337.939,380.369,330.796,380.369z"/>
						<rect x="287.221" y="427.909" style="fill:#5035B5;" width="80.857" height="9.962"/>
					</g>
				</g>
			</g>
		</g>
	</g>
</g>
</svg>
